<svg width="500" height="500" viewBox="0 0 500 500" fill="none" xmlns="http://www.w3.org/2000/svg">
<rect width="500" height="500" fill="white"/>
<path d="M171.444 395.406L117.704 357.929L127.604 319.745L300.138 88.5214L358.121 101.956L382.162 149.333L211.749 371.364L171.444 395.406Z" fill="url(#paint0_linear)"/>
<path d="M107.588 389.726C118.494 369.794 118.788 369.971 112.226 361.182C105.667 352.392 107.741 340.542 114.99 329.369C121.035 320.046 117.687 319.113 116.746 313.513C115.712 307.357 120.412 296.655 172.707 228.264C172.707 228.264 245.262 133.876 278.372 90.7431C303.358 58.1936 345.698 74.9622 364.916 89.1727C384.134 103.383 412.585 141.547 387.391 174.369C354.99 216.579 281.578 311.988 281.578 311.988C225.297 385.317 218.735 385.938 211.635 386.556C205.469 387.092 202.744 387.563 197.352 392.842C189.173 400.853 179.527 408.022 168.584 404.417C158.39 401.058 158.063 401.385 141.65 416.114C128.923 427.536 113.508 429.742 107.066 424.796C100.623 419.851 100.207 403.177 107.564 389.73L107.588 389.726ZM182.701 369.832L140.193 336.937C136.654 334.334 133.32 335.713 130.995 338.714L129.315 340.6C125.823 344.516 124.547 348.347 125.247 352.471C126.045 357.131 128.531 359.372 134.044 363.599C142.13 369.795 150.637 376.735 158.86 383.025C163.359 386.467 166.664 388.879 171.163 388.63C175.143 388.411 177.643 387.136 181.426 382.51L184.283 379.014C187.587 374.973 186.233 372.564 182.698 369.833L182.701 369.832ZM296.675 113.787L204.051 233.697L147.365 307.823C142.163 314.626 144.528 319.875 148.574 322.984C171.46 340.574 174.719 343.088 195.097 358.753C200.714 363.115 206.621 363.384 211.408 357.544C211.408 357.544 249.808 307.754 268.393 283.065C299.117 242.253 360.063 162.308 360.063 162.308C366.577 153.515 370 142.739 366.658 133.457C360.339 115.895 340.873 100.662 322.256 99.3463C312.489 98.6561 303.698 105.411 296.677 113.787L296.675 113.787Z" fill="url(#paint1_linear)"/>
<defs>
<linearGradient id="paint0_linear" x1="109.219" y1="418.033" x2="360.949" y2="94.1782" gradientUnits="userSpaceOnUse">
<stop stop-color="#55D5B8"/>
<stop offset="1" stop-color="#26665C"/>
</linearGradient>
<linearGradient id="paint1_linear" x1="110.14" y1="420.633" x2="357.317" y2="98.6331" gradientUnits="userSpaceOnUse">
<stop stop-color="#29836E"/>
<stop offset="1" stop-color="#18403B"/>
</linearGradient>
</defs>
</svg>
