<?xml version="1.0" encoding="UTF-8" standalone="no"?>
<svg
   xmlns:dc="http://purl.org/dc/elements/1.1/"
   xmlns:cc="http://creativecommons.org/ns#"
   xmlns:rdf="http://www.w3.org/1999/02/22-rdf-syntax-ns#"
   xmlns:svg="http://www.w3.org/2000/svg"
   xmlns="http://www.w3.org/2000/svg"
   xmlns:xlink="http://www.w3.org/1999/xlink"
   id="svg8"
   version="1.1"
   viewBox="0 0 264.58333 264.58334"
   height="1000"
   width="1000">
  <defs
     id="defs2">
    <linearGradient
       id="linearGradient882">
      <stop
         id="stop878"
         offset="0"
         style="stop-color:#29836e;stop-opacity:1" />
      <stop
         id="stop880"
         offset="1"
         style="stop-color:#18403b;stop-opacity:1" />
    </linearGradient>
    <linearGradient
       gradientTransform="translate(-1.5566679e-6)"
       gradientUnits="userSpaceOnUse"
       y2="272.00635"
       x2="237.46504"
       y1="55.491173"
       x1="23.481726"
       id="linearGradient884"
       xlink:href="#linearGradient882" />
    <filter
       height="1.2570426"
       y="-0.12852131"
       width="1.3093962"
       x="-0.15469811"
       id="filter1516"
       style="color-interpolation-filters:sRGB">
      <feGaussianBlur
         id="feGaussianBlur1518"
         stdDeviation="9.5030003" />
    </filter>
  </defs>
  <metadata
     id="metadata5">
    <rdf:RDF>
      <cc:Work
         rdf:about="">
        <dc:format>image/svg+xml</dc:format>
        <dc:type
           rdf:resource="http://purl.org/dc/dcmitype/StillImage" />
        <dc:title></dc:title>
      </cc:Work>
    </rdf:RDF>
  </metadata>
  <g
     transform="translate(0,-32.41665)"
     id="layer1">
    <rect
       y="32.416649"
       x="-3.933522e-09"
       height="264.58334"
       width="264.58334"
       id="rect911"
       style="opacity:1;fill:url(#linearGradient884);fill-opacity:1;fill-rule:nonzero;stroke:none;stroke-width:0.66499996;stroke-linecap:round;stroke-linejoin:round;stroke-miterlimit:4;stroke-dasharray:none;stroke-dashoffset:0;stroke-opacity:1" />
    <path
       id="path878"
       d="m 81.475423,150.62556 c 0,0 -61.497553,10.7311 -67.68864,37.55892 -6.1909703,26.82782 60.259475,44.57544 73.054226,42.09902 12.794848,-2.47642 7.842041,39.20988 -35.90799,30.12971 -43.749992,-9.08017 -70.199216,-23.44603 -74.705142,-49.941 -5.159181,-30.33608 53.202488,-49.00145 67.775953,-53.09272 14.037919,-3.9409 35.79699,-7.31213 37.471593,-6.75393 z"
       style="fill:#2c8c76;fill-opacity:1;stroke:none;stroke-width:0.81717485px;stroke-linecap:butt;stroke-linejoin:miter;stroke-opacity:1" />
    <g
       id="g1525">
      <path
         id="path1445"
         d="m 61.297455,234.67986 c 5.44703,-9.95537 5.594036,-9.86704 2.316802,-14.25689 -3.276014,-4.39005 -2.24022,-10.30867 1.380523,-15.88917 3.019058,-4.65666 1.34697,-5.12263 0.877067,-7.91974 -0.516882,-3.0748 1.830806,-8.42001 27.950479,-42.57871 0,0 36.238264,-47.1435 52.775584,-68.686978 12.47965,-16.257349 33.62721,-7.882011 43.22585,-0.784393 9.59866,7.097768 23.80896,26.159071 11.22524,42.552781 -16.18272,21.08218 -52.84979,68.73579 -52.84979,68.73579 -28.10996,36.62515 -31.38768,36.93514 -34.934,37.24409 -3.07955,0.26768 -4.44053,0.50289 -7.1336,3.13956 -4.08531,4.001 -8.903146,7.582 -14.368595,5.7812 -5.091713,-1.67755 -5.255055,-1.51456 -13.452615,5.84213 -6.357042,5.70503 -14.055949,6.80676 -17.273755,4.33658 -3.217807,-2.47019 -3.425534,-10.79825 0.248896,-17.51444 z M 98.81403,224.74342 77.58268,208.31375 c -1.76786,-1.30021 -3.433047,-0.61147 -4.594334,0.88714 l -0.838731,0.94209 c -1.744281,1.9558 -2.381556,3.86949 -2.032096,5.929 0.398415,2.32798 1.640049,3.44704 4.393781,5.55839 4.038539,3.09471 8.287851,6.56066 12.394586,9.70256 2.247391,1.71887 3.897768,2.92362 6.145174,2.79955 1.987845,-0.10969 3.236497,-0.74626 5.125787,-3.05704 l 1.427295,-1.74584 c 1.649868,-2.01836 0.973598,-3.2216 -0.791924,-4.58577 z M 155.73985,96.858126 109.47752,156.74867 81.164709,193.77234 c -2.598303,3.39774 -1.41708,6.01934 0.603718,7.57237 11.430917,8.78515 13.058773,10.04106 23.236933,17.86536 2.80534,2.17822 5.75556,2.31296 8.14659,-0.60401 0,0 19.17941,-24.86849 28.46218,-37.19972 15.3452,-20.38436 45.78578,-60.31407 45.78578,-60.31407 3.25361,-4.39167 4.96314,-9.77403 3.29416,-14.41007 -3.15633,-8.77126 -12.87878,-16.379758 -22.1776,-17.036859 -4.87816,-0.344725 -9.26874,3.02929 -12.77571,7.21261 z"
         style="fill:#090000;fill-rule:nonzero;stroke-width:1.58022881;fill-opacity:1;opacity:0.414;filter:url(#filter1516)" />
      <g
         id="g1478">
        <path
           style="fill:#2ebfa5;fill-opacity:1;stroke:none;stroke-width:8.17442989px;stroke-linecap:butt;stroke-linejoin:miter;stroke-opacity:1"
           d="m 93.233824,163.3898 -20.061877,30.26021 1.768238,7.99442 c 12.997812,9.79209 13.898215,12.06212 33.657835,25.10361 L 197.26834,118.31066 190.67033,95.217118 165.82662,81.609915 137.57506,110.97783 Z"
           id="path1449" />
        <path
           style="fill:#2eb79e;fill-opacity:1;stroke:none;stroke-width:0.26458335px;stroke-linecap:butt;stroke-linejoin:miter;stroke-opacity:1"
           d="m 74.940182,201.64443 -11.440184,14.92222 28.045833,21.69584 17.052189,-11.51445 z"
           id="path1432" />
        <path
           id="path1451"
           d="m 61.297455,234.67986 c 5.44703,-9.95537 5.594036,-9.86704 2.316802,-14.25689 -3.276014,-4.39005 -2.24022,-10.30867 1.380523,-15.88917 3.019058,-4.65666 1.34697,-5.12263 0.877067,-7.91974 -0.516882,-3.0748 1.830806,-8.42001 27.950479,-42.57871 0,0 36.238264,-47.1435 52.775584,-68.686978 12.47965,-16.257349 33.62721,-7.882011 43.22585,-0.784393 9.59866,7.097768 23.80896,26.159071 11.22524,42.552781 -16.18272,21.08218 -52.84979,68.73579 -52.84979,68.73579 -28.10996,36.62515 -31.38768,36.93514 -34.934,37.24409 -3.07955,0.26768 -4.44053,0.50289 -7.1336,3.13956 -4.08531,4.001 -8.903146,7.582 -14.368595,5.7812 -5.091713,-1.67755 -5.255055,-1.51456 -13.452615,5.84213 -6.357042,5.70503 -14.055949,6.80676 -17.273755,4.33658 -3.217807,-2.47019 -3.425534,-10.79825 0.248896,-17.51444 z M 98.81403,224.74342 77.58268,208.31375 c -1.76786,-1.30021 -3.433047,-0.61147 -4.594334,0.88714 l -0.838731,0.94209 c -1.744281,1.9558 -2.381556,3.86949 -2.032096,5.929 0.398415,2.32798 1.640049,3.44704 4.393781,5.55839 4.038539,3.09471 8.287851,6.56066 12.394586,9.70256 2.247391,1.71887 3.897768,2.92362 6.145174,2.79955 1.987845,-0.10969 3.236497,-0.74626 5.125787,-3.05704 l 1.427295,-1.74584 c 1.649868,-2.01836 0.973598,-3.2216 -0.791924,-4.58577 z M 155.73985,96.858126 109.47752,156.74867 81.164709,193.77234 c -2.598303,3.39774 -1.41708,6.01934 0.603718,7.57237 11.430917,8.78515 13.058773,10.04106 23.236933,17.86536 2.80534,2.17822 5.75556,2.31296 8.14659,-0.60401 0,0 19.17941,-24.86849 28.46218,-37.19972 15.3452,-20.38436 45.78578,-60.31407 45.78578,-60.31407 3.25361,-4.39167 4.96314,-9.77403 3.29416,-14.41007 -3.15633,-8.77126 -12.87878,-16.379758 -22.1776,-17.036859 -4.87816,-0.344725 -9.26874,3.02929 -12.77571,7.21261 z"
           style="fill:#ffffff;fill-rule:nonzero;stroke-width:1.58022881" />
      </g>
    </g>
  </g>
</svg>
